<svg width="283" height="427" viewBox="0 0 283 427" fill="none" xmlns="http://www.w3.org/2000/svg">
<path d="M221.189 414.195C184.772 427.185 162.577 410.887 151.568 400.663C140.858 412.391 111.046 441.077 70.3439 418.705C34.6407 400.663 39.1036 371.796 37.3184 364.58C21.41 358.806 12.243 348.342 9.64801 343.832C-5.34734 325.068 0.424483 298.126 5.18482 287C4.29224 293.916 5.0063 311.537 15.0032 326.692C25.0001 341.847 45.3509 347.44 54.2768 348.342C54.2768 355.559 53.3842 388.936 83.7319 403.37C114.08 417.803 145.32 391.642 145.32 390.74C98.9058 382.622 98.0132 344.734 98.0132 343.832C100.691 351.95 106.046 359.167 113.187 367.286C145.714 399.294 187.27 369.912 189.837 367.448C189.875 367.394 189.912 367.34 189.949 367.286C189.986 367.286 189.947 367.342 189.837 367.448C181.945 378.766 160.063 389.196 158.769 388.986C205.869 427.875 243.212 390.73 256 367.286C252.43 392.545 231.305 409.083 221.189 414.195Z" fill="#EFDCDC"/>
<path d="M97.0824 99.8108C77.3894 112.865 75.4892 137.015 77.0007 147.458C66.8519 143.324 44.0925 138.582 34.2461 152.68C17.6625 175.133 33.3824 195.975 43.3153 203.59C38.1329 208.377 27.7682 223.171 27.7682 244.057C27.7682 264.944 49.3614 275.822 60.1579 278.65C58.4305 288.658 61.4535 311.938 87.3654 324.992C116.905 341.179 143.724 320.858 153.441 308.674C161.43 316.072 184.017 328.516 210.447 319.118C236.877 309.719 241.757 279.085 240.893 264.944C254.929 259.722 283 242.36 283 214.686C282.482 168.214 249.099 153.985 232.472 152.68C236.143 142.672 238.043 118.086 216.277 99.8108C189.069 76.9665 156.032 105.685 155.384 106.338C154.348 104.249 150.202 101.116 148.258 99.8108C139.405 94.3717 116.775 86.7569 97.0824 99.8108Z" fill="#F1E7E7"/>
<path d="M77.0007 56.601C75.4892 46.1313 77.3894 21.9203 97.0824 8.83318C116.775 -4.25389 139.405 3.38024 148.258 8.83318C150.202 10.1419 154.348 13.2827 155.384 15.3767C156.032 14.7223 189.069 -14.0691 216.277 8.83318C238.043 27.155 236.143 51.8028 232.472 61.8364C249.099 63.1451 282.482 77.41 283 124C281.92 107.641 269.526 76.1013 228.585 80.8127C231.608 84.5207 236.229 95.7319 230.528 110.913C230.312 105.024 226.771 91.2823 214.333 83.4301C201.896 75.5778 188.422 76.6684 183.239 78.1953C186.262 73.8329 195.418 65.5008 207.855 67.0712C214.593 68.1182 220.164 72.3061 222.107 74.2691C226.857 62.4908 230.14 35.7931 205.264 23.2296C180.389 10.666 161.646 24.5383 155.384 33.0449C161.646 35.0079 174.559 41.9441 176.113 53.9842C173.738 51.3668 165.619 46.0011 152.145 45.4776C138.671 44.9541 128.392 52.6751 124.938 56.601C126.881 49.6214 134.266 35.4005 148.258 34.3536C143.292 25.6288 127.529 10.7968 104.208 21.2665C80.8873 31.7361 83.2626 53.5479 87.3653 63.1451C91.2521 62.7089 100.71 62.6216 107.447 65.7625C102.049 66.1988 89.8268 68.9034 84.1263 76.2322C78.4259 83.561 75.2732 91.5004 74.4094 94.5541C72.4722 88.9013 71.436 75.0134 82.7208 64.5552C81.032 64.895 60.2372 55.3942 44.6107 72.9604C37.3554 81.3361 40.724 103.061 43.3153 112.876C33.3824 105.242 17.6625 84.3462 34.2461 61.8364C44.0925 47.7024 66.8519 52.457 77.0007 56.601Z" fill="#F4ECEC"/>
</svg>
